# xmcd
#
# Track frame offsets: 
#        150
#        11533
#        23468
#        35351
#        49204
#        62997
#        76125
#        87737
#        102318
#        114794
#        130408
#        142965
#        156512
#        167453
#        181303
#        193415
#        212025
#        226218
#        241330
#        251934
#        265593
#        278794
#        296110
#        313006
#
# Disc length: 4352 seconds
#
# Revision: 1
# Processed by: cddbd v1.5.2PL0 Copyright (c) Steve Scherf et al.
# Submitted via: ExactAudioCopy v0.99pb5
#
DISCID=5610fe18
DTITLE=Various Artist - Criollos de siempre 3
DYEAR=1999
DGENRE=Folklor  Latino
TTITLE0=Pancho Jimenez - Morir quisiera
TTITLE1=Los morochucos - Hermelinda
TTITLE2=Tania Libertad - La contamanina
TTITLE3=Lucha Reyes - Propiedad privada
TTITLE4=Los embajadores criollos - El tisico
TTITLE5=Los Kipus - Amorcito
TTITLE6=Fiesta Criolla - Con el trino de mi guitarra
TTITLE7=Maritza Rodriguez - Cautivo de amor
TTITLE8=Los cholos - La rosa del pantano
TTITLE9=Edith Barr - Limeña
TTITLE10=Hnos Zañartu - Rebeca
TTITLE11=Los embajadores criollos - Lejano amor
TTITLE12=Hnos Zañartu - Tiendeme la mano
TTITLE13=Los Kipus - Huye de mi
TTITLE14=Carmencita Lara - Olvidalo amigo
TTITLE15=Eva Ayllon - Raices negras
TTITLE16=Los morochucos - El plebeyo
TTITLE17=Chabuca Granda - La flor de la canela
TTITLE18=Lucila Campos - No te he dado motivo
TTITLE19=Troveros criollos - Carreta aqui es el tono
TTITLE20=Cholo Berrocal - Mujer ingrata
TTITLE21=Lucha Reyes - Una carta al cielo
TTITLE22=Arturo Zambo Cavero - Cariño bonito
TTITLE23=Fiesta criolla - Amarte es mi delirio
EXTD=
EXTT0=
EXTT1=
EXTT2=
EXTT3=
EXTT4=
EXTT5=
EXTT6=
EXTT7=
EXTT8=
EXTT9=
EXTT10=
EXTT11=
EXTT12=
EXTT13=
EXTT14=
EXTT15=
EXTT16=
EXTT17=
EXTT18=
EXTT19=
EXTT20=
EXTT21=
EXTT22=
EXTT23=
PLAYORDER=
